<svg width="23" height="23" viewBox="0 0 23 23" fill="none" xmlns="http://www.w3.org/2000/svg">
<path d="M11.023 14.7004C13.0524 14.7004 14.6974 13.0553 14.6974 11.026C14.6974 8.99665 13.0524 7.35156 11.023 7.35156C8.99372 7.35156 7.34863 8.99665 7.34863 11.026C7.34863 13.0553 8.99372 14.7004 11.023 14.7004Z" fill="#F97316" stroke="white" stroke-width="2" stroke-linecap="round" stroke-linejoin="round"/>
<path d="M14.6973 7.34755V11.9406C14.6973 12.6714 14.9877 13.3724 15.5045 13.8892C16.0213 14.406 16.7222 14.6964 17.4531 14.6964C18.184 14.6964 18.885 14.406 19.4018 13.8892C19.9186 13.3724 20.2089 12.6714 20.2089 11.9406V11.022C20.2089 8.95262 19.5102 6.94391 18.226 5.32127C16.9419 3.69863 15.1474 2.55711 13.1334 2.08168C11.1195 1.60625 9.00397 1.82474 7.12969 2.70177C5.2554 3.5788 3.73215 5.06298 2.80672 6.91384C1.88129 8.76471 1.6079 10.8738 2.03084 12.8995C2.45379 14.9251 3.54829 16.7486 5.13702 18.0745C6.72575 19.4004 8.71563 20.1511 10.7843 20.2049C12.8529 20.2586 14.8791 19.6123 16.5345 18.3708" stroke="white" stroke-width="2" stroke-linecap="round" stroke-linejoin="round"/>
</svg>
