<svg width="227" height="191" viewBox="0 0 227 191" fill="none" xmlns="http://www.w3.org/2000/svg">
<mask id="mask0_379_119" style="mask-type:luminance" maskUnits="userSpaceOnUse" x="0" y="0" width="227" height="191">
<path d="M0.870117 0.921875H226.87V190.922H0.870117V0.921875Z" fill="white"/>
</mask>
<g mask="url(#mask0_379_119)">
<path d="M227.12 47.8438L162.641 64.651L66.3962 0.921875V89.7552L45.3493 95.2344L0.885742 79.5312V190.969H227.12V47.8438ZM222.995 53.1875V186.844H193.407V147.536L167.443 138.38V67.8229L167.313 67.7292L222.995 53.1875ZM44.7503 99.6979L66.3962 107.37V186.896H44.5628V99.7344H44.7503V99.6979ZM70.4326 108.703L163.391 141.552V186.802H70.4326V108.703ZM70.4326 92.9062L162.042 69.026L163.391 69.9062V136.901L70.4326 104.052V92.9062ZM167.386 142.943L188.979 150.557V186.75H167.386V142.885V142.943ZM70.4326 8.40625L157.407 66.0208L70.4326 88.6875V8.40625ZM66.3962 94.0156V102.661L52.2712 97.6927L66.3962 94.0156ZM5.25553 85.7031L40.4326 98.1615V186.844H5.25553V85.7031Z" fill="#F97316"/>
</g>
</svg>
