<svg width="23" height="23" viewBox="0 0 23 23" fill="none" xmlns="http://www.w3.org/2000/svg">
<path d="M20.2087 15.5415V18.2973C20.2097 18.5532 20.1573 18.8064 20.0548 19.0408C19.9523 19.2752 19.802 19.4856 19.6135 19.6586C19.425 19.8315 19.2024 19.9632 18.9601 20.0452C18.7177 20.1271 18.4609 20.1576 18.2061 20.1346C15.3795 19.8274 12.6642 18.8615 10.2786 17.3144C8.05912 15.9041 6.17737 14.0223 4.76701 11.8028C3.21456 9.4064 2.24843 6.67797 1.94691 3.83858C1.92395 3.58455 1.95414 3.32853 2.03555 3.08682C2.11697 2.8451 2.24782 2.62298 2.41977 2.43461C2.59173 2.24623 2.80103 2.09572 3.03434 1.99267C3.26765 1.88961 3.51987 1.83627 3.77492 1.83603H6.53073C6.97653 1.83164 7.40872 1.98951 7.74673 2.2802C8.08475 2.57089 8.30553 2.97458 8.36793 3.41602C8.48424 4.29794 8.69996 5.16387 9.01095 5.99729C9.13454 6.32608 9.16129 6.6834 9.08802 7.02693C9.01476 7.37045 8.84456 7.68578 8.59758 7.93553L7.43095 9.10216C8.73863 11.4019 10.6428 13.3061 12.9426 14.6138L14.1092 13.4471C14.3589 13.2002 14.6743 13.03 15.0178 12.9567C15.3613 12.8834 15.7186 12.9102 16.0474 13.0338C16.8808 13.3448 17.7468 13.5605 18.6287 13.6768C19.0749 13.7397 19.4824 13.9645 19.7738 14.3083C20.0651 14.6521 20.2199 15.091 20.2087 15.5415Z" fill="#F97316" stroke="white" stroke-width="2" stroke-linecap="round" stroke-linejoin="round"/>
<path d="M12.9062 1.83594C14.7786 2.03322 16.5275 2.86367 17.8638 4.18993C19.2001 5.51618 20.0437 7.25882 20.2551 9.12963" stroke="white" stroke-width="2" stroke-linecap="round" stroke-linejoin="round"/>
<path d="M12.9062 5.50781C13.8097 5.68596 14.6387 6.13157 15.2858 6.78679C15.9328 7.44201 16.3679 8.27659 16.5347 9.18221" stroke="white" stroke-width="2" stroke-linecap="round" stroke-linejoin="round"/>
</svg>
