<svg width="200" height="200" viewBox="0 0 200 200" fill="none" xmlns="http://www.w3.org/2000/svg">
<path d="M123.23 45.2105C123.114 45.5506 123.082 58.2957 123.086 74.6823L100.357 87.4194V58.0276L123.23 45.2105ZM84.3261 74.6983V68.3197L75.3545 70.7207L67.7835 72.7615L66.467 73.1176L51.2169 77.2273V82.2293L67.1393 78.5918L84.3261 74.6983ZM84.3261 87.6314V81.417L75.2225 83.0176L67.5594 84.3781L66.2309 84.6182L51.2169 87.2793V92.6534L67.1272 90.2325L84.3261 87.6314ZM84.3261 61.7651V55.2225L75.4906 58.4197L68.0116 61.1408L66.7071 61.621L51.2169 67.2593V71.8091L67.1513 66.9592L84.3261 61.7651ZM67.1112 101.865L84.3261 100.565V94.5142L75.0904 95.3145L67.3313 95.9948L65.9948 96.1148L51.2209 97.4113V103.01L51.393 103.066L67.1112 101.865ZM152.505 58.1997V123.558L168.372 130.713V77.4434L152.505 58.1997ZM84.3261 48.8279V42.1212L75.6226 46.1228L68.2397 49.5242L66.9432 50.1244L51.2129 57.3713V61.3889L67.1593 55.3265L84.3261 48.8279ZM84.3141 35.8827L84.3261 29.024L75.7547 33.8299L67.1833 38.6318L51.2169 47.5754V50.9648L67.1753 43.6939L84.3141 35.8827ZM107.996 129.248L92.3934 132.673L78.948 135.627L55.1545 140.853L32.5574 145.819L30.8847 146.187L19.4922 148.688V151.101L66.8912 144.354L73.6579 143.39L92.3974 140.721L107.996 138.5L108.064 138.512V129.228L107.996 129.248ZM107.996 112.045L100.164 114.774L97.6635 115.651L92.3934 117.487L90.9688 117.984L44.9184 134.046L30.8847 138.94L19.4922 142.918V145.435L30.8847 142.493L42.1933 139.572L46.8271 138.376L83.5298 128.9L92.3894 126.611L107.992 122.581L108.06 122.597V112.073L107.996 112.045ZM92.3934 147.535L19.4922 153.514V155.815L92.3934 154.534L107.996 154.258L108.064 154.262V146.255L107.996 146.259L92.3934 147.535ZM65.6387 107.611L84.114 113.514L84.1581 113.494L84.1621 111.633V109.62L84.1661 107.611H65.6387ZM92.3934 160.136L19.4922 157.952V160.132L107.996 168.056H108.064V160.609L107.996 160.605L92.3934 160.136Z" fill="#FC9B2C"/>
<path d="M134.314 68.3917L123.234 74.5982V45.2105L134.314 58.6518V68.3917ZM84.3261 35.8987L100.164 50.2965V48.2317L84.3261 29.024V35.8987ZM84.3261 48.8279L100.164 60.8287V58.1276L84.3261 42.1212V48.8279ZM84.3261 61.7651L100.164 71.3649V68.0276L84.3261 55.2225V61.7651ZM84.3261 74.6983L100.164 81.8971V77.9235L84.3261 68.3197V74.6983ZM84.3261 87.6314L94.4822 90.7087L99.8564 87.6955L84.3221 81.4169V87.6314H84.3261ZM84.3261 100.565L92.3934 101.789V96.1468L84.3261 94.5142V100.565ZM84.1661 113.49L92.3934 110.036V107.611H84.1661V113.49ZM30.8848 135.847L44.9184 129.96V100.997L30.8848 111.365V135.847ZM168.372 135.186L152.505 129.104L152.325 129.036L108.064 112.073V122.597L152.329 134.422L152.505 134.47L168.372 138.708L180.873 142.049V139.976L168.372 135.186ZM156.511 140.917L152.505 139.948L152.341 139.912L108.064 129.232V138.512L108.12 138.504L152.353 145.006L168.372 147.367L180.873 149.204V146.791L168.372 143.778L156.511 140.917ZM152.361 150.669L108.064 146.251V154.258L108.12 154.254L152.373 155.202L168.372 155.543L180.873 155.811V153.514L168.372 152.265L152.361 150.669ZM152.381 159.772L108.2 160.613L108.064 160.605V168.052L168.372 161.937L180.873 160.673V159.232L168.372 159.468L152.381 159.772Z" fill="#555555"/>
</svg>
