<svg width="27" height="26" viewBox="0 0 27 26" fill="none" xmlns="http://www.w3.org/2000/svg">
<path d="M4.37819 22.3281L5.0445 19.2469L7.43239 21.5473L4.37819 22.3281Z" fill="#F97316"/>
<circle cx="14" cy="13" r="11" fill="#F97316"/>
<path d="M22.4054 4.4875C20.1607 2.2375 17.1714 1 13.9946 1C7.4375 1 2.10179 6.33571 2.10179 12.8929C2.10179 14.9875 2.64821 17.0339 3.6875 18.8393L2 25L8.30536 23.3446C10.0411 24.2929 11.9964 24.7911 13.9893 24.7911H13.9946C20.5464 24.7911 26 19.4554 26 12.8982C26 9.72143 24.65 6.7375 22.4054 4.4875ZM13.9946 22.7875C12.2161 22.7875 10.475 22.3107 8.95893 21.4107L8.6 21.1964L4.86071 22.1768L5.85714 18.5286L5.62143 18.1536C4.63036 16.5786 4.11071 14.7625 4.11071 12.8929C4.11071 7.44464 8.54643 3.00893 14 3.00893C16.6411 3.00893 19.1214 4.0375 20.9857 5.90714C22.85 7.77679 23.9964 10.2571 23.9911 12.8982C23.9911 18.3518 19.4429 22.7875 13.9946 22.7875ZM19.4161 15.3839C19.1214 15.2339 17.6589 14.5161 17.3857 14.4196C17.1125 14.3179 16.9143 14.2696 16.7161 14.5696C16.5179 14.8696 15.95 15.5339 15.7732 15.7375C15.6018 15.9357 15.425 15.9625 15.1304 15.8125C13.3839 14.9393 12.2375 14.2536 11.0857 12.2768C10.7804 11.7518 11.3911 11.7893 11.9589 10.6536C12.0554 10.4554 12.0071 10.2839 11.9321 10.1339C11.8571 9.98393 11.2625 8.52143 11.0161 7.92679C10.775 7.34821 10.5286 7.42857 10.3464 7.41786C10.175 7.40714 9.97679 7.40714 9.77857 7.40714C9.58036 7.40714 9.25893 7.48214 8.98571 7.77679C8.7125 8.07679 7.94643 8.79464 7.94643 10.2571C7.94643 11.7196 9.0125 13.1339 9.15714 13.3321C9.30714 13.5304 11.2518 16.5304 14.2357 17.8214C16.1214 18.6357 16.8607 18.7054 17.8036 18.5661C18.3768 18.4804 19.5607 17.8482 19.8071 17.1518C20.0536 16.4554 20.0536 15.8607 19.9786 15.7375C19.9089 15.6036 19.7107 15.5286 19.4161 15.3839Z" fill="white"/>
</svg>
